<!DOCTYPE svg PUBLIC "-//W3C//DTD SVG 1.1//EN" "http://www.w3.org/Graphics/SVG/1.1/DTD/svg11.dtd">
<!-- Uploaded to: SVG Repo, www.svgrepo.com, Transformed by: SVG Repo Mixer Tools -->
<svg fill="#EAC7C7 " version="1.1" id="Capa_1" xmlns="http://www.w3.org/2000/svg" xmlns:xlink="http://www.w3.org/1999/xlink" width="800px" height="800px" viewBox="-6.2 -6.2 100.98 100.98" xml:space="preserve" transform="matrix(-1, 0, 0, 1, 0, 0)rotate(0)" stroke="#EAC7C7 " stroke-width="0.00088582">
<g id="SVGRepo_bgCarrier" stroke-width="0"/>
<g id="SVGRepo_tracerCarrier" stroke-linecap="round" stroke-linejoin="round" stroke="#000000" stroke-width="0.354328"> <g> <g> <path d="M54.717,38.671l17.009,4.373c1.033-3.999,2.997-11.697,4.425-17.29l-4.668,2.674l-3.851-6.75 c-1.779-3.119-5.047-8.834-8.028-14.027c-1.649-2.888-3.217-5.617-4.38-7.65c-1.413,0.361-3.583,0.853-7.13,1.633 C44.913,2.337,39.8,3.467,37.957,4.026l-0.933,0.845L28.12,16.568l9.163,6.508l7.777-11.463l14.052,24.549l-3.744,2.134 C55.367,38.299,55.124,38.439,54.717,38.671z"/> <path d="M13.043,42.302l4.819,2.262l-1.787,3.884c0,0-0.588,1.277-1.507,3.193l-1.656,3.511 c-2.71,5.743-6.737,14.264-8.987,19.052c1.102,0.955,2.765,2.467,5.47,4.951c2.415,2.231,6.326,5.825,7.777,6.944l1.061,0.229 l14.695,0.595l0.094-11.238l-13.757,0.185l8.574-18.182c0.993-2.098,1.665-3.501,1.665-3.501l1.853-3.881l3.879,1.852 c0,0,0.247,0.12,0.662,0.318l-6.146-16.443C25.891,37.468,18.451,40.266,13.043,42.302z"/> <path d="M84.004,55.015c-0.329-1.417-0.715-2.717-1.177-3.891c-0.432-1.167-0.982-2.207-1.428-3.05 c-0.195-0.403-0.417-0.776-0.633-1.102c-0.116,0.527-0.243,1.096-0.394,1.718c-0.757,3.053-1.94,7.081-3.521,10.958 c-0.78,1.94-1.694,3.822-2.611,5.551c-0.503,0.842-0.985,1.653-1.451,2.423c-0.51,0.739-0.999,1.431-1.443,2.074 c-0.511,0.595-0.969,1.143-1.38,1.629c-0.38,0.506-0.831,0.849-1.143,1.17c-0.66,0.634-1.033,0.985-1.033,0.985 s0.346-0.39,0.947-1.061c0.295-0.349,0.705-0.719,1.051-1.246c0.363-0.513,0.773-1.084,1.219-1.711 c0.396-0.664,0.811-1.389,1.266-2.148c0.387-0.794,0.801-1.619,1.232-2.481c0.773-1.766,1.513-3.672,2.129-5.63 c1.242-3.9,2.094-7.926,2.576-10.95c0.072-0.466,0.144-0.903,0.202-1.314l-2.307,0.438c-0.623,0.373-1.286,0.77-1.954,1.235 c-0.982,0.667-2.016,1.413-3.049,2.241c-1.051,0.818-2.047,1.729-3.077,2.676c-1.02,0.948-1.95,1.975-2.871,3.025 c-0.883,1.068-1.759,2.143-2.512,3.289c-0.739,1.167-1.502,2.275-2.098,3.497c-1.263,2.368-2.241,4.809-2.916,7.307 c-0.38,1.19-0.615,2.525-0.869,3.737c-0.257,1.215-0.407,2.525-0.589,3.733c-0.178,1.194-0.328,2.392-0.438,3.556 c-0.13,1.197-0.243,2.244-0.346,3.101c-0.134,0.862-0.144,1.738-0.219,2.265c-0.041,0.589-0.062,0.904-0.062,0.904 s0.301,0.096,0.835,0.205c0.51,0.082,1.355,0.305,2.307,0.335c0.944,0.048,2.244,0.192,3.504,0.007 c1.263-0.157,2.683-0.441,4.199-0.872c1.465-0.47,2.916-1.14,4.452-1.938c1.533-0.797,2.857-1.845,4.271-2.98 c1.376-1.149,2.561-2.464,3.73-3.87c1.088-1.421,2.074-2.943,2.93-4.521c0.773-1.594,1.533-3.23,2.022-4.894 c0.51-1.666,0.906-3.34,1.085-5.01C84.88,61.079,84.609,57.821,84.004,55.015z"/> </g> </g> </g>
<g id="SVGRepo_iconCarrier"> <g> <g> <path d="M54.717,38.671l17.009,4.373c1.033-3.999,2.997-11.697,4.425-17.29l-4.668,2.674l-3.851-6.75 c-1.779-3.119-5.047-8.834-8.028-14.027c-1.649-2.888-3.217-5.617-4.38-7.65c-1.413,0.361-3.583,0.853-7.13,1.633 C44.913,2.337,39.8,3.467,37.957,4.026l-0.933,0.845L28.12,16.568l9.163,6.508l7.777-11.463l14.052,24.549l-3.744,2.134 C55.367,38.299,55.124,38.439,54.717,38.671z"/> <path d="M13.043,42.302l4.819,2.262l-1.787,3.884c0,0-0.588,1.277-1.507,3.193l-1.656,3.511 c-2.71,5.743-6.737,14.264-8.987,19.052c1.102,0.955,2.765,2.467,5.47,4.951c2.415,2.231,6.326,5.825,7.777,6.944l1.061,0.229 l14.695,0.595l0.094-11.238l-13.757,0.185l8.574-18.182c0.993-2.098,1.665-3.501,1.665-3.501l1.853-3.881l3.879,1.852 c0,0,0.247,0.12,0.662,0.318l-6.146-16.443C25.891,37.468,18.451,40.266,13.043,42.302z"/> <path d="M84.004,55.015c-0.329-1.417-0.715-2.717-1.177-3.891c-0.432-1.167-0.982-2.207-1.428-3.05 c-0.195-0.403-0.417-0.776-0.633-1.102c-0.116,0.527-0.243,1.096-0.394,1.718c-0.757,3.053-1.94,7.081-3.521,10.958 c-0.78,1.94-1.694,3.822-2.611,5.551c-0.503,0.842-0.985,1.653-1.451,2.423c-0.51,0.739-0.999,1.431-1.443,2.074 c-0.511,0.595-0.969,1.143-1.38,1.629c-0.38,0.506-0.831,0.849-1.143,1.17c-0.66,0.634-1.033,0.985-1.033,0.985 s0.346-0.39,0.947-1.061c0.295-0.349,0.705-0.719,1.051-1.246c0.363-0.513,0.773-1.084,1.219-1.711 c0.396-0.664,0.811-1.389,1.266-2.148c0.387-0.794,0.801-1.619,1.232-2.481c0.773-1.766,1.513-3.672,2.129-5.63 c1.242-3.9,2.094-7.926,2.576-10.95c0.072-0.466,0.144-0.903,0.202-1.314l-2.307,0.438c-0.623,0.373-1.286,0.77-1.954,1.235 c-0.982,0.667-2.016,1.413-3.049,2.241c-1.051,0.818-2.047,1.729-3.077,2.676c-1.02,0.948-1.95,1.975-2.871,3.025 c-0.883,1.068-1.759,2.143-2.512,3.289c-0.739,1.167-1.502,2.275-2.098,3.497c-1.263,2.368-2.241,4.809-2.916,7.307 c-0.38,1.19-0.615,2.525-0.869,3.737c-0.257,1.215-0.407,2.525-0.589,3.733c-0.178,1.194-0.328,2.392-0.438,3.556 c-0.13,1.197-0.243,2.244-0.346,3.101c-0.134,0.862-0.144,1.738-0.219,2.265c-0.041,0.589-0.062,0.904-0.062,0.904 s0.301,0.096,0.835,0.205c0.51,0.082,1.355,0.305,2.307,0.335c0.944,0.048,2.244,0.192,3.504,0.007 c1.263-0.157,2.683-0.441,4.199-0.872c1.465-0.47,2.916-1.14,4.452-1.938c1.533-0.797,2.857-1.845,4.271-2.98 c1.376-1.149,2.561-2.464,3.73-3.87c1.088-1.421,2.074-2.943,2.93-4.521c0.773-1.594,1.533-3.23,2.022-4.894 c0.51-1.666,0.906-3.34,1.085-5.01C84.88,61.079,84.609,57.821,84.004,55.015z"/> </g> </g> </g>
</svg>